<?xml version="1.0" encoding="UTF-8" standalone="no"?>
<!-- Created with Inkscape (http://www.inkscape.org/) -->

<svg
   width="512"
   height="512"
   viewBox="0 0 135.46666 135.46667"
   version="1.1"
   id="svg5"
   inkscape:version="1.2.1 (9c6d41e410, 2022-07-14)"
   sodipodi:docname="pharmacy_app_logo - Copy.svg"
   inkscape:export-filename="ev_logo.png"
   inkscape:export-xdpi="96"
   inkscape:export-ydpi="96"
   xmlns:inkscape="http://www.inkscape.org/namespaces/inkscape"
   xmlns:sodipodi="http://sodipodi.sourceforge.net/DTD/sodipodi-0.dtd"
   xmlns="http://www.w3.org/2000/svg"
   xmlns:svg="http://www.w3.org/2000/svg">
  <sodipodi:namedview
     id="namedview7"
     pagecolor="#fff4b0"
     bordercolor="#000000"
     borderopacity="0.25"
     inkscape:showpageshadow="2"
     inkscape:pageopacity="1"
     inkscape:pagecheckerboard="false"
     inkscape:deskcolor="#d1d1d1"
     inkscape:document-units="px"
     showgrid="false"
     inkscape:zoom="0.74564394"
     inkscape:cx="318.51664"
     inkscape:cy="244.75489"
     inkscape:window-width="960"
     inkscape:window-height="1001"
     inkscape:window-x="0"
     inkscape:window-y="0"
     inkscape:window-maximized="0"
     inkscape:current-layer="layer1" />
  <defs
     id="defs2" />
  <g
     inkscape:label="Layer 1"
     inkscape:groupmode="layer"
     id="layer1">
    <path
       d="m 113.07024,70.231257 -0.43676,0.173957 -0.17117,0.06825 -0.52927,-0.02913 -0.49575,0.237941 -0.87907,0.600694 -0.0388,0.02782 -0.32769,0.0855 -0.30433,-0.131303 -0.17285,0.07862 -0.0596,0.356078 -0.16448,0.255745 -0.20254,0.142245 -0.70157,0.07177 -0.59161,0.305078 -0.76965,-0.206043 -0.35756,0.140021 -0.76037,0.684706 -0.38853,0.183971 -0.13575,-0.0078 -0.5152,-0.02652 -0.21754,0.07122 -0.32493,0.313977 -0.61477,0.04784 -0.1916,0.132601 -0.30007,0.604589 -0.32511,0.335304 -0.18545,0.03932 -0.20159,-0.07418 -0.15153,0.02671 -0.0686,0.386862 -0.14705,0.16209 -0.41154,0.141689 -0.32881,0.27392 -0.28858,0.148364 -0.38648,-0.0097 h -0.0888 l -0.38499,0.212532 -0.723291,0.06343 -0.30118,0.287273 -0.0664,0.06139 -0.14059,0.08493 -0.22997,0.137237 -0.0556,0.03411 -0.27819,-0.04952 -0.32455,0.128522 -0.13131,-0.201962 -0.22458,0.134827 -0.29673,0.01279 -0.37092,-0.16487 -0.28226,-0.12574 -0.20641,0.02986 -0.0718,0.359786 -0.007,0.0382 -0.21701,0.288756 -0.40502,0.245359 -0.0556,0.07178 -0.46085,0.594944 -0.87573,0.920979 -0.74053,0.376105 -0.767594,0.23349 -0.537845,0.441386 -1.409451,0.698616 -2.224564,1.107732 -0.454931,0.14577 -0.652804,0.104221 -1.164299,0.428777 -1.027243,0.309898 -0.05713,0.01743 -0.204001,0.06157 -1.448421,0.438233 -0.674125,-0.07121 -0.399298,0.145027 -1.039479,-0.115354 -0.723278,0.01428 -0.457524,0.09513 -0.859964,0.412455 -1.451572,0.697687 -0.479584,0.438791 -0.746837,0.389459 -0.874428,0.276886 0.0018,-0.367389 -0.0045,-0.01559 -0.303414,0.09588 -0.219017,0.06918 -0.709373,0.109414 h -0.394651 l -0.244989,-0.07121 -0.03712,0.0128 -1.4499,0.476438 -1.616998,0.156153 -0.80915,0.259641 -0.604588,-0.0097 -0.377959,0.112378 -0.741826,0.0907 -0.264835,-0.07066 -0.05972,-0.01631 -2.179119,0.09458 -0.996272,-0.112574 -0.47551,0.108116 -0.797465,-0.268172 -1.162625,-0.134827 -0.271699,-0.08141 -0.612003,-0.181376 -0.276513,0.159307 -0.206972,0.02207 -0.494612,-0.179337 -0.178039,-0.0044 -0.408006,0.148366 -0.234973,-0.06027 -0.218282,-0.173957 -0.512046,-0.07622 -0.311938,-0.262236 -1.743292,0.23108 -0.4731,-0.139094 -1.586397,-0.462156 -0.252406,0.01279 -0.315277,0.235716 -0.472542,0.17229 -0.410231,0.106633 -0.558595,0.01856 -0.649098,-0.170249 -0.668755,-0.324178 -0.247216,-0.05878 -0.551547,0.05563 -0.168767,0.01521 -1.013705,-0.543758 -1.305986,-0.816011 -0.886111,-0.426548 -0.33271,-0.05395 -0.04469,0.158194 0.165058,0.519281 0.05563,0.514455 -0.01688,0.475326 -0.0092,0.294319 0.0827,0.264276 0.319914,0.354592 0.133342,0.356077 0.09754,0.979954 -0.0011,0.994417 -0.155598,1.58584 -0.05248,0.241094 -0.185456,0.821572 -0.169507,0.754623 -0.65763,2.009046 -0.180635,0.24907 -0.443426,0.30248 -1.004991,0.68397 -0.739971,0.42655 -0.23423,0.097 -0.600695,0.0454 -0.374251,-0.0185 -0.466053,-0.25241 -0.457522,-0.11777 -0.599397,-0.431 -0.667643,-0.13798 -0.730884,-0.42247 -0.190278,-0.22867 -0.39799,-0.0371 -0.551919,-0.16561 v -9.5e-4 l -0.203064,-0.0607 -0.140019,-0.0408 v 0 l -0.704759,-0.0185 -0.656515,-0.30304 -0.345693,-0.0835 -0.472359,-0.02392 -0.494427,0.22978 v 0 l -0.250551,0.11666 -0.316575,-0.12574 -0.229039,0.0143 -0.25964,0.39224 -0.03189,0.0599 -0.17878,0.0946 -0.222547,-0.003 -0.174144,-0.005 -0.188424,0.0823 -0.253705,0.10998 v 0 l -0.224032,0.0977 -0.109414,0.0473 -0.0018,-0.002 -0.06732,0.0135 -0.11962,0.0208 -0.148364,0.0284 -0.261495,-0.15282 -0.139092,-0.082 -0.233119,-0.0475 -0.125554,0.0907 -0.02467,0.42655 -0.114607,0.25556 -0.36368,0.32158 -0.369615,0.32548 -0.2576,0.37963 -0.681739,1.55598 -0.42655,0.62777 -0.1326,0.14632 -0.448435,0.49332 -0.396136,0.3073 -0.912817,0.70752 -0.864043,0.32288 -0.744237,0.152069 -0.361826,0.002 -0.68619,-0.0912 -0.616272,-0.189169 -0.676916,-0.42321 -0.741828,-0.59661 -1.074536,-1.06156 -0.152074,-0.0914 -0.03171,-0.0211 -0.338457,-0.21643 -0.251109,0.007 -0.09828,0.16209 -0.05378,0.23423 -0.04544,0.20771 -0.123144,1.1808 0.0092,0.0684 0.06472,0.48627 0.816009,1.140559 0.25185,0.60588 0.04135,0.0692 0.168396,0.28283 0.128149,0.21568 0.01279,0.0218 0.278185,0.83233 -0.196027,0.46994 0.09903,0.31528 -0.247771,0.19231 -0.04543,0.27169 0.732738,0.91857 0.159865,0.40521 -0.178595,0.56176 -0.284861,0.30989 -0.07957,0.0848 0.04005,0.2374 0.337161,0.3032 0.572875,0.51001 0.305448,0.75778 0.232376,0.20399 0.270026,-0.0575 0.15022,0.11467 0.22774,-0.005 0.224031,0.22405 0.145028,0.0703 0.229225,0.11421 0.181189,0.2359 0.04005,0.72532 0.337901,0.90131 0.0052,0.48868 0.0018,0.0694 0.210306,0.36126 0.06602,0.28524 -0.111275,0.75462 0.267984,0.24221 0.29061,-0.0594 0.187683,0.0297 0.301552,0.25111 0.365164,0.55637 0.35719,-0.0523 0.226627,0.10926 1.094195,0.98923 0.248326,0.12537 0.01373,0.008 0.178593,0.0896 0.222548,0.22402 0.344208,-0.22848 0.0382,-0.005 0.37425,-0.033 0.164316,0.11133 0.315275,0.21308 0.41431,-0.006 0.898353,0.27539 0.392981,0.10065 0.790232,0.49109 0.335861,0.20771 0.198812,0.16154 0.264088,0.21531 0.527625,0.227 0.452514,0.10834 0.245173,0.0583 0.185458,0.0712 0.0046,-0.0115 h 0.0025 l -0.0045,0.0117 0.979953,0.37518 0.530777,0.12388 0.491089,0.18082 0.357376,0.12982 0.262235,0.005 0.370914,-0.31193 0.35923,-0.0208 0.298397,0.0742 0.291169,-0.0488 0.460859,-0.28395 0.08995,-0.13334 0.326774,-0.1556 1.102355,-0.13686 0.322139,0.10455 0.827136,-0.35979 0.554144,0.15412 0.490532,-0.17396 1.071755,0.23814 0.284861,0.20047 0.31843,0.36442 0.03894,8.6e-4 0.354592,0.007 -0.148364,0.24684 0.467907,0.4909 0.422654,0.6389 0.02856,0.0843 0.307301,0.90205 0.228483,0.31956 0.159865,0.44602 0.0078,0.29079 -0.248513,0.18955 -0.0408,0.10812 -0.01411,0.04 0.05044,0.12148 0.09385,-0.0511 0.178594,-0.0988 0.217355,-0.0338 0.383154,0.0408 0.252962,0.0264 0.399475,-0.19825 0.264647,-0.13167 0.425251,0.18304 0.467351,-0.005 0.196213,0.0873 0.556368,0.25184 0.283565,0.0268 0.104784,-0.0688 0.06677,-0.15875 -0.03431,-0.18546 -0.21346,-0.24461 -0.469391,-0.54488 -0.192133,-0.28004 -0.146325,-0.4054 -0.04526,-0.51855 -0.03227,-0.34957 0.05823,-0.4594 0.126111,-0.16393 0.09273,-0.36499 h 0.0017 l 0.02392,-0.0955 0.260753,-0.34607 0.69064,-0.4438 0.741826,-0.66431 0.586414,-0.38668 0.60459,-0.26185 0.01613,-0.0742 0.06732,0.0271 1.537807,-0.5228 0.0254,-0.002 0.684706,-0.11925 4.621579,0.32547 0.171365,-0.0517 v -8.6e-4 l 0.153927,-0.43211 0.0829,-0.0801 0.05566,-0.0523 0.508152,-0.22366 0.237569,-0.0339 0.659486,0.16284 0.270022,0.0665 0.432486,-0.24239 0.306744,0.005 0.633704,-0.34606 0.391496,0.0103 0.148368,-0.0595 0.7626,-0.54802 0.734591,-0.21049 0.191019,-0.10156 0.06737,-0.0371 0.752956,-0.39762 0.478292,-0.3674 0.412824,-0.21939 0.452141,-0.11666 1.183212,-0.0833 0.237941,-0.3965 0.508895,-0.0679 0.307305,-0.34681 0.352362,-0.14298 0.252036,-0.36313 0.211237,-0.30433 0.295066,-0.17081 0.945827,-0.0594 1.121087,0.13891 0.148364,-0.09 0.253336,-0.9041 0.2652,-0.16969 0.714197,-1.04078 0.0018,-0.37927 v -0.31704 l 0.117393,-0.45103 -0.07971,-0.81434 0.09459,-0.82453 0.443981,-1.04783 0.391122,-0.42265 0.630559,-0.42654 0.32065,-0.13965 0.454185,-0.0764 v 1.8e-4 l 0.06676,-0.0115 0.115729,-0.0199 1.56395,-0.0215 c 0.02167,-0.0161 0.568799,-0.008 0.568799,-0.008 l 0.521497,-0.007 1.319716,0.23441 0.09386,0.0163 0.445107,0.14448 0.514458,0.40002 0.544868,0.53208 0.102187,0.0991 0.35237,0.14837 0.106634,0.0465 0.291352,-0.0465 0.414862,-0.21606 0.313059,-0.26465 0.426546,-0.23312 0.01046,-0.0148 0.240159,-0.36126 0.0069,-0.007 0.0043,10e-4 v -0.002 h -0.0043 l 0.09479,-0.14372 0.824717,-0.3214 0.969948,-0.0556 0.109034,-0.0589 0.06067,-0.0324 0.256289,-0.30099 0.240176,-0.002 0.581396,0.2103 0.40801,-0.0812 0.324546,0.12981 0.252222,-0.0299 0.475689,-0.0556 0.510762,0.35923 0.297651,0.0371 1.049309,0.61387 0.05454,0.009 0.02818,0.005 0.06006,0.0103 0.12443,-0.0371 0.185467,-0.0535 0.02439,-0.007 0.02335,0.0324 0.119252,0.1682 0.163578,0.0233 0.193609,-0.25835 -0.07695,-0.1172 -0.02904,-0.0426 -0.374801,-0.0762 -0.33661,-0.5749 0.320471,-0.34514 -0.502765,-0.61683 -0.08341,-0.10214 -0.02835,-0.0434 -0.173764,-0.26391 -0.880184,-1.34177 -1.146487,-0.915229 v 0 l -0.401497,-0.32121 -0.0034,-0.002 -0.140562,-0.11127 -0.612029,-0.62277 -0.437292,-0.58047 -0.05748,-0.125 -0.09031,-0.19696 -0.262055,-0.57083 -0.456585,-0.35237 -0.372042,-0.40634 -0.01853,-0.0239 -0.767784,-1.04338 -0.126119,-0.17488 -0.181381,-0.10479 -0.38315,-0.003 -0.03705,-0.0371 -0.02154,-0.0224 0.01302,-0.0137 0.183793,-0.18268 0.204932,-0.0516 0.08824,-0.20196 -0.390948,-1.131291 -0.0034,-0.03951 -0.02903,-0.36164 0.318609,-1.642219 0.04076,-0.200108 0.543023,-1.10495 0.336403,-0.275588 0.367226,-0.721797 0.315274,-0.461418 0.301357,-0.293392 0.05266,-0.03115 0.544135,-0.32937 0.457154,-0.06435 0.435439,-0.06139 0.760372,0.234418 0.723276,-0.0141 0.14114,-0.01502 0.328242,-0.03709 0.539878,-0.170064 0.254815,-0.157267 0.132218,-0.202707 0.275781,-0.92487 0.0886,-0.294321 0.170067,-0.319726 0.984037,-1.13277 0.74386,-0.688045 1.67264,-1.226423 0.8188,-0.48942 0.41801,-0.24981 3.732501,-1.659096 0.96993,-0.982918 0.50538,-0.51149 0.89409,-0.599952 1.04615,-0.428592 0.90023,-0.712524 0.19658,-0.247399 0.24776,-0.797463 0.20641,-0.04988 0.18546,-0.403184 0.0531,-0.114607 0.73459,-0.517794 0.0831,-0.04136 2.85381,-1.42987 0.41469,0.05693 0.22254,-0.332525 0.83029,-0.139277 0.15281,-0.02597 0.20401,-0.102188 0.17413,-0.296731 v -0.05861 l 0.0239,-0.792457 0.17731,-0.214202 0.0966,-0.522246 0.091,-0.120546 0.0951,-0.125368 0.23516,-0.165242 -0.0408,-0.09848 z"
       fill="#d57800"
       id="path14"
       style="stroke:#ffffff;stroke-width:1.98437498;stroke-dasharray:none;stroke-opacity:1;fill-opacity:1;fill:#f6d24b;stroke-linejoin:round;stroke-linecap:butt;paint-order:stroke markers fill" />
    <path
       style="fill:#f4cd00;fill-opacity:1;stroke:#ffffff;stroke-width:1.98437498;stroke-dasharray:none;stroke-opacity:1;paint-order:stroke markers fill;stroke-linejoin:round"
       d="M 67.733332,89.811956 Q 52.439123,76.79547 44.885496,65.63261 37.334151,54.472035 37.334151,44.971296 q 0,-14.249975 9.167862,-22.704195 9.165586,-8.456503 21.231319,-8.456503 12.065738,0 21.231316,8.456503 9.167865,8.45422 9.167865,22.704195 0,9.500739 -7.551345,20.661314 -7.553639,11.16286 -22.847836,24.179346 z"
       id="path6828"
       inkscape:export-filename="ev_logo.png"
       inkscape:export-xdpi="96"
       inkscape:export-ydpi="96" />
    <path
       d="m 59.663533,53.90002 3.880569,-6.173609 h -2.33717 v -4.630213 l -3.83647,6.173614 h 2.293071 z M 54.504162,38.995161 H 66.366303 V 28.940993 H 54.504162 Z M 51.858332,58.04516 V 28.940993 q 0,-1.058332 0.79373,-1.852083 0.793771,-0.79375 1.8521,-0.79375 h 11.862141 q 1.05833,0 1.852099,0.79375 0.79373,0.793751 0.79373,1.852083 v 12.700001 h 2.866329 q 0.92604,0 1.565442,0.63941 0.639429,0.639409 0.639429,1.565449 v 9.657292 q 0,0.970137 0.7717,1.609549 0.7717,0.639409 1.78593,0.639409 1.01424,0 1.89617,-0.639409 0.881969,-0.639412 0.881969,-1.609549 V 36.437519 h -0.66147 q -0.573269,0 -0.948099,-0.374825 -0.374831,-0.374826 -0.374831,-0.94809 v -3.968752 h 0.88196 v -2.204859 h 1.322901 v 2.204859 h 1.763899 v -2.204859 h 1.322901 v 2.204859 h 0.88197 v 3.968752 q 0,0.573264 -0.37483,0.94809 -0.374841,0.374825 -0.9481,0.374825 h -0.661471 v 17.065626 q 0,1.896181 -1.499299,3.219097 -1.4993,1.322918 -3.48367,1.322918 -1.940299,0 -3.3514,-1.322918 -1.411101,-1.322916 -1.411101,-3.219097 V 43.845853 H 69.012132 V 58.04516 Z"
       id="path132"
       style="fill:#ffffff;fill-opacity:1;stroke-width:0.881945" />
  </g>
</svg>