<?xml version="1.0" encoding="UTF-8" standalone="no"?>
<!-- Created with Inkscape (http://www.inkscape.org/) -->

<svg
   width="210mm"
   height="297mm"
   viewBox="0 0 210 297"
   version="1.1"
   id="svg5"
   xml:space="preserve"
   inkscape:version="1.2.1 (9c6d41e410, 2022-07-14)"
   sodipodi:docname="map_callout.svg"
   xmlns:inkscape="http://www.inkscape.org/namespaces/inkscape"
   xmlns:sodipodi="http://sodipodi.sourceforge.net/DTD/sodipodi-0.dtd"
   xmlns="http://www.w3.org/2000/svg"
   xmlns:svg="http://www.w3.org/2000/svg"><sodipodi:namedview
     id="namedview7"
     pagecolor="#ffffff"
     bordercolor="#000000"
     borderopacity="0.25"
     inkscape:showpageshadow="2"
     inkscape:pageopacity="0.0"
     inkscape:pagecheckerboard="0"
     inkscape:deskcolor="#d1d1d1"
     inkscape:document-units="mm"
     showgrid="false"
     inkscape:zoom="1"
     inkscape:cx="458.5"
     inkscape:cy="454"
     inkscape:window-width="1920"
     inkscape:window-height="1009"
     inkscape:window-x="1912"
     inkscape:window-y="-8"
     inkscape:window-maximized="1"
     inkscape:current-layer="layer1" /><defs
     id="defs2" /><g
     inkscape:label="Layer 1"
     inkscape:groupmode="layer"
     id="layer1"><rect
       style="fill:#ffffff;stroke:#000000;stroke-width:2.38258;stroke-linejoin:bevel;stroke-dasharray:none;stroke-opacity:1;paint-order:stroke markers fill"
       id="rect1956"
       width="131.81645"
       height="100.96281"
       x="47.482006"
       y="44.974163"
       rx="2.115101e-17"
       ry="0.28335583" /><rect
       style="fill:#ffffff;stroke:#000000;stroke-width:1;stroke-linejoin:bevel;stroke-dasharray:none;stroke-opacity:1;paint-order:stroke markers fill"
       id="rect1956-5"
       width="28.005898"
       height="28.005899"
       x="143.9767"
       y="50.642052"
       rx="4.4937712e-18"
       ry="0.07859958" /><text
       xml:space="preserve"
       style="font-size:8.46667px;font-family:Arial;-inkscape-font-specification:Arial;text-align:center;text-anchor:middle;fill:#ffffff;stroke:#000000;stroke-width:2;stroke-linejoin:bevel;stroke-dasharray:none;stroke-opacity:1;paint-order:stroke markers fill"
       x="60.188187"
       y="56.247288"
       id="text2012"><tspan
         sodipodi:role="line"
         id="tspan2010"
         style="font-style:normal;font-variant:normal;font-weight:bold;font-stretch:normal;font-size:8.46667px;font-family:Arial;-inkscape-font-specification:'Arial Bold';fill:#000000;stroke:none;stroke-width:2"
         x="60.188187"
         y="56.247288">Title</tspan></text><text
       xml:space="preserve"
       style="font-size:7.05556px;font-family:Arial;-inkscape-font-specification:Arial;text-align:center;text-anchor:middle;fill:#ffffff;stroke:#000000;stroke-width:2;stroke-linejoin:bevel;stroke-dasharray:none;stroke-opacity:1;paint-order:stroke markers fill"
       x="75.471184"
       y="66.971245"
       id="text2012-7"><tspan
         sodipodi:role="line"
         id="tspan2010-1"
         style="font-style:normal;font-variant:normal;font-weight:normal;font-stretch:normal;font-size:7.05556px;font-family:Arial;-inkscape-font-specification:Arial;fill:#000000;stroke:none;stroke-width:2"
         x="75.471184"
         y="66.971245">Address, Town</tspan></text><text
       xml:space="preserve"
       style="font-size:7.05556px;font-family:Arial;-inkscape-font-specification:Arial;text-align:center;text-anchor:middle;fill:#ffffff;stroke:#000000;stroke-width:2;stroke-linejoin:bevel;stroke-dasharray:none;stroke-opacity:1;paint-order:stroke markers fill"
       x="65.639267"
       y="76.902672"
       id="text2012-7-6"><tspan
         sodipodi:role="line"
         id="tspan2010-1-7"
         style="font-style:normal;font-variant:normal;font-weight:normal;font-stretch:normal;font-size:7.05556px;font-family:Arial;-inkscape-font-specification:Arial;fill:#000000;stroke:none;stroke-width:2"
         x="65.639267"
         y="76.902672">Operator</tspan></text><text
       xml:space="preserve"
       style="font-size:5.64444px;font-family:Arial;-inkscape-font-specification:Arial;text-align:center;text-anchor:middle;fill:#ffffff;stroke:#000000;stroke-width:2;stroke-linejoin:bevel;stroke-dasharray:none;stroke-opacity:1;paint-order:stroke markers fill"
       x="157.73749"
       y="62.193966"
       id="text2012-7-6-9"><tspan
         sodipodi:role="line"
         id="tspan2010-1-7-0"
         style="font-style:normal;font-variant:normal;font-weight:normal;font-stretch:normal;font-size:5.64444px;font-family:Arial;-inkscape-font-specification:Arial;fill:#000000;stroke:none;stroke-width:2"
         x="157.73749"
         y="62.193966">Operator</tspan><tspan
         sodipodi:role="line"
         style="font-style:normal;font-variant:normal;font-weight:normal;font-stretch:normal;font-size:5.64444px;font-family:Arial;-inkscape-font-specification:Arial;fill:#000000;stroke:none;stroke-width:2"
         x="157.73749"
         y="69.249519"
         id="tspan5468">Logo</tspan></text><rect
       style="fill:#ffffff;stroke:#000000;stroke-width:1.2;stroke-linejoin:bevel;stroke-dasharray:none;stroke-opacity:1;paint-order:stroke markers fill"
       id="rect2220"
       width="118.79543"
       height="41.052353"
       x="53.992519"
       y="85.519661"
       rx="2.150997e-17"
       ry="0.30827779" /><rect
       style="fill:none;stroke:#000000;stroke-width:0.6;stroke-linejoin:bevel;stroke-dasharray:none;stroke-opacity:1;paint-order:stroke markers fill"
       id="rect2220-3"
       width="32.266472"
       height="10.615063"
       x="141.02925"
       y="132.01123"
       rx="5.8424048e-18"
       ry="0.079712562" /><path
       d="m 87.439818,91.198039 c 1.888887,1.666645 3.000001,4.000009 3.000001,6.666671 0,4.8889 -4.000001,8.8889 -8.888894,8.8889 -4.888891,0 -8.888893,-4 -8.888893,-8.8889 0,-2.666662 1.222225,-5.000026 3.000002,-6.666671 h 11.777784 m 0.777777,-2.222234 H 74.884257 l -0.666667,0.555549 c -2.444445,2.111114 -3.777778,5.111145 -3.777778,8.333356 0,6.11112 5.000002,11.1111 11.111113,11.1111 6.111113,0 11.111114,-4.99998 11.111114,-11.1111 0,-3.222211 -1.333333,-6.222242 -3.777778,-8.333356 l -0.666666,-0.555549 m -5.55556,5.000026 c 0,0.888858 0.777781,1.666646 1.666668,1.666646 0.88889,0 1.666667,-0.777788 1.666667,-1.666646 0,-0.888907 -0.777777,-1.666695 -1.666667,-1.666695 -0.888887,0 -1.666668,0.777788 -1.666668,1.666695 m -5.555554,0 c 0,0.888858 0.777777,1.666646 1.666667,1.666646 0.888887,0 1.666667,-0.777788 1.666667,-1.666646 0,-0.888907 -0.77778,-1.666695 -1.666667,-1.666695 -0.88889,0 -1.666667,0.777788 -1.666667,1.666695 m -1.111114,6.111109 c 1.222223,0 2.222225,-1.000013 2.222225,-2.22223 0,-1.222216 -1.000002,-2.222233 -2.222225,-2.222233 -1.22222,0 -2.22222,1.000017 -2.22222,2.222233 0,1.222217 1,2.22223 2.22222,2.22223 m 5.000002,2.22219 c 0,-1.2222 -1.000001,-2.22219 -2.222221,-2.22219 -1.222224,0 -2.222224,0.99999 -2.222224,2.22219 0,1.22222 1,2.22225 2.222224,2.22225 1.22222,0 2.222221,-1.00003 2.222221,-2.22225 m 0.555556,-2.22219 c 1.222225,0 2.222225,-1.000013 2.222225,-2.22223 0,-1.222216 -1,-2.222233 -2.222225,-2.222233 -1.222223,0 -2.222223,1.000017 -2.222223,2.222233 0,1.222217 1,2.22223 2.222223,2.22223 m 5.000003,2.22219 c 0,-1.2222 -1.000001,-2.22219 -2.222225,-2.22219 -1.22222,0 -2.22222,0.99999 -2.22222,2.22219 0,1.22222 1,2.22225 2.22222,2.22225 1.222224,0 2.222225,-1.00003 2.222225,-2.22225 m 2.777777,-4.44442 c 0,-1.222216 -1,-2.222233 -2.222221,-2.222233 -1.222224,0 -2.222224,1.000017 -2.222224,2.222233 0,1.222217 1,2.22223 2.222224,2.22223 1.222221,0 2.222221,-1.000013 2.222221,-2.22223"
       id="path3319"
       style="stroke-width:1.11111" /><text
       xml:space="preserve"
       style="font-size:5.64444px;font-family:Arial;-inkscape-font-specification:Arial;text-align:center;text-anchor:middle;fill:#ffffff;stroke:#000000;stroke-width:2;stroke-linejoin:bevel;stroke-dasharray:none;stroke-opacity:1;paint-order:stroke markers fill"
       x="81.823448"
       y="116.51311"
       id="text2012-7-6-1"><tspan
         sodipodi:role="line"
         id="tspan2010-1-7-3"
         style="font-style:normal;font-variant:normal;font-weight:normal;font-stretch:normal;font-size:5.64444px;font-family:Arial;-inkscape-font-specification:Arial;fill:#000000;stroke:none;stroke-width:2"
         x="81.823448"
         y="116.51311">Type 2 (Socket Only)</tspan></text><text
       xml:space="preserve"
       style="font-size:4.93889px;font-family:Arial;-inkscape-font-specification:Arial;text-align:center;text-anchor:middle;fill:#ffffff;stroke:#000000;stroke-width:2;stroke-linejoin:bevel;stroke-dasharray:none;stroke-opacity:1;paint-order:stroke markers fill"
       x="141.05428"
       y="116.37308"
       id="text2012-7-6-1-2"><tspan
         sodipodi:role="line"
         id="tspan2010-1-7-3-7"
         style="font-style:normal;font-variant:normal;font-weight:normal;font-stretch:normal;font-size:4.93889px;font-family:Arial;-inkscape-font-specification:Arial;fill:#000000;stroke:none;stroke-width:2"
         x="141.05428"
         y="116.37308">CCS (Type 2)</tspan></text><text
       xml:space="preserve"
       style="font-size:5.64444px;font-family:Arial;-inkscape-font-specification:Arial;text-align:center;text-anchor:middle;fill:#ffffff;stroke:#000000;stroke-width:2;stroke-linejoin:bevel;stroke-dasharray:none;stroke-opacity:1;paint-order:stroke markers fill"
       x="80.640518"
       y="123.08875"
       id="text2012-7-6-1-3"><tspan
         sodipodi:role="line"
         id="tspan2010-1-7-3-3"
         style="font-style:normal;font-variant:normal;font-weight:normal;font-stretch:normal;font-size:5.64444px;font-family:Arial;-inkscape-font-specification:Arial;fill:#000000;stroke:none;stroke-width:2"
         x="80.640518"
         y="123.08875">22kW AC</tspan></text><text
       xml:space="preserve"
       style="font-size:5.64444px;font-family:Arial;-inkscape-font-specification:Arial;text-align:center;text-anchor:middle;fill:#ffffff;stroke:#000000;stroke-width:2;stroke-linejoin:bevel;stroke-dasharray:none;stroke-opacity:1;paint-order:stroke markers fill"
       x="72.783516"
       y="139.08643"
       id="text2012-7-6-1-3-83"><tspan
         sodipodi:role="line"
         id="tspan2010-1-7-3-3-10"
         style="font-style:normal;font-variant:normal;font-weight:normal;font-stretch:normal;font-size:5.64444px;font-family:Arial;-inkscape-font-specification:Arial;fill:#000000;stroke:none;stroke-width:2"
         x="72.783516"
         y="139.08643">3.4 km</tspan></text><text
       xml:space="preserve"
       style="font-size:5.64444px;font-family:Arial;-inkscape-font-specification:Arial;text-align:center;text-anchor:middle;fill:#ffffff;stroke:#000000;stroke-width:2;stroke-linejoin:bevel;stroke-dasharray:none;stroke-opacity:1;paint-order:stroke markers fill"
       x="157.22588"
       y="139.0468"
       id="text2012-7-6-1-3-83-6"><tspan
         sodipodi:role="line"
         id="tspan2010-1-7-3-3-10-4"
         style="font-style:normal;font-variant:normal;font-weight:normal;font-stretch:normal;font-size:5.64444px;font-family:Arial;-inkscape-font-specification:Arial;fill:#000000;stroke:none;stroke-width:2"
         x="157.22588"
         y="139.0468">Details</tspan></text><text
       xml:space="preserve"
       style="font-size:4.93889px;font-family:Arial;-inkscape-font-specification:Arial;text-align:center;text-anchor:middle;fill:#ffffff;stroke:#000000;stroke-width:2;stroke-linejoin:bevel;stroke-dasharray:none;stroke-opacity:1;paint-order:stroke markers fill"
       x="141.5752"
       y="123.21143"
       id="text2012-7-6-1-3-8"><tspan
         sodipodi:role="line"
         id="tspan2010-1-7-3-3-1"
         style="font-style:normal;font-variant:normal;font-weight:normal;font-stretch:normal;font-size:4.93889px;font-family:Arial;-inkscape-font-specification:Arial;fill:#000000;stroke:none;stroke-width:2"
         x="141.5752"
         y="123.21143">50kW DC</tspan></text><text
       xml:space="preserve"
       style="font-size:7.05556px;font-family:Arial;-inkscape-font-specification:Arial;text-align:center;text-anchor:middle;fill:#ffffff;stroke:#000000;stroke-width:2;stroke-linejoin:bevel;stroke-dasharray:none;stroke-opacity:1;paint-order:stroke markers fill"
       x="62.477253"
       y="101.82433"
       id="text2012-7-6-0"><tspan
         sodipodi:role="line"
         style="font-style:normal;font-variant:normal;font-weight:normal;font-stretch:normal;font-size:7.05556px;font-family:Arial;-inkscape-font-specification:Arial;fill:#000000;stroke:none;stroke-width:2"
         x="62.477253"
         y="101.82433"
         id="tspan4506">2x</tspan></text><text
       xml:space="preserve"
       style="font-size:7.05556px;font-family:Arial;-inkscape-font-specification:Arial;text-align:center;text-anchor:middle;fill:#ffffff;stroke:#000000;stroke-width:2;stroke-linejoin:bevel;stroke-dasharray:none;stroke-opacity:1;paint-order:stroke markers fill"
       x="125.27338"
       y="102.60615"
       id="text2012-7-6-0-6"><tspan
         sodipodi:role="line"
         style="font-style:normal;font-variant:normal;font-weight:normal;font-stretch:normal;font-size:7.05556px;font-family:Arial;-inkscape-font-specification:Arial;fill:#000000;stroke:none;stroke-width:2"
         x="125.27338"
         y="102.60615"
         id="tspan4506-6">1x</tspan></text><path
       d="m 137.71917,105.56525 c 0,0.66667 -0.58334,1.25 -1.25002,1.25 -0.66665,0 -1.24998,-0.58333 -1.24998,-1.25 0,-0.66666 0.58333,-1.25 1.24998,-1.25 0.66668,0 1.25002,0.58334 1.25002,1.25 m 8.74998,-1.25 c -0.66664,0 -1.24998,0.58334 -1.24998,1.25 0,0.66667 0.58334,1.25 1.24998,1.25 0.66668,0 1.25002,-0.58333 1.25002,-1.25 0,-0.66666 -0.58334,-1.25 -1.25002,-1.25 m 3.33336,1.25 c 0,1.83333 -1.5,3.33333 -3.33336,3.33333 h -10 c -1.83332,0 -3.33332,-1.5 -3.33332,-3.33333 0,-1.83334 1.5,-3.33333 3.33332,-3.33333 h 0.25008 c -1.66664,-1.33333 -2.74998,-3.500011 -2.74998,-5.833336 0,-4.166668 3.33332,-7.500001 7.5,-7.500001 4.16667,0 7.5,3.333333 7.5,7.500001 0,2.333325 -1.08334,4.500006 -2.75001,5.833336 h 0.25007 c 1.83336,0 3.33336,1.49999 3.33336,3.33333 m -8.33336,-3.33333 c 3.25002,0 5.83335,-2.583341 5.83335,-5.833336 0,-3.250001 -2.58333,-5.833337 -5.83335,-5.833337 -3.24998,0 -5.83332,2.583336 -5.83332,5.833337 0,3.249995 2.58334,5.833336 5.83332,5.833336 m 6.66668,3.33333 c 0,-0.91667 -0.74998,-1.66667 -1.66668,-1.66667 h -9.99999 c -0.91667,0 -1.66666,0.75 -1.66666,1.66667 0,0.91667 0.74999,1.66667 1.66666,1.66667 h 9.99999 c 0.9167,0 1.66668,-0.75 1.66668,-1.66667 m -5.91666,-11.416666 c 0,-0.833336 0.66667,-1.500001 1.5,-1.500001 0.83332,0 1.5,0.666665 1.5,1.500001 0,0.833332 -0.66668,1.5 -1.5,1.5 -0.83333,0 -1.5,-0.666668 -1.5,-1.5 m -4.50001,0 c 0,-0.833336 0.66669,-1.500001 1.5,-1.500001 0.83333,0 1.50001,0.666665 1.50001,1.500001 0,0.833332 -0.66668,1.5 -1.50001,1.5 -0.83331,0 -1.5,-0.666668 -1.5,-1.5 m 1.5,3.249996 c 0,0.500009 -0.41666,0.916669 -0.91666,0.916669 -0.49999,0 -0.91666,-0.41666 -0.91666,-0.916669 0,-0.499996 0.33332,-0.999996 0.83333,-0.999996 0.58333,0 0.99999,0.5 0.99999,0.999996 m 3.74999,2.083329 c 0,0.833341 -0.66665,1.500001 -1.5,1.500001 -0.83332,0 -1.49999,-0.66666 -1.49999,-1.500001 0,-0.83332 0.66667,-1.49999 1.49999,-1.49999 0.83335,0 1.5,0.66667 1.5,1.49999 m 2.66668,-2.083329 c 0,0.500009 -0.41666,0.916669 -0.91666,0.916669 -0.5,0 -0.91667,-0.41666 -0.91667,-0.916669 0,-0.499996 0.33333,-0.999996 0.91667,-0.999996 0.5,0 0.91666,0.5 0.91666,0.999996"
       id="path5265"
       style="stroke-width:0.833332" /><g
       style="fill:#000000;fill-opacity:1"
       id="g7302"
       transform="matrix(0.01228422,0,0,0.01228422,52.311906,142.30804)"><path
         d="m 480,-80 q -106,0 -173,-33.5 -67,-33.5 -67,-86.5 0,-24 14.5,-44.5 Q 269,-265 295,-280 l 63,59 q -9,4 -19.5,9 -10.5,5 -16.5,12 13,16 60,28 47,12 98,12 51,0 98.5,-12 47.5,-12 60.5,-28 -7,-8 -18,-13 -11,-5 -21,-9 l 62,-60 q 28,16 43,36.5 15,20.5 15,45.5 0,53 -67,86.5 Q 586,-80 480,-80 Z m 1,-220 q 99,-73 149,-146.5 50,-73.5 50,-147.5 0,-102 -65,-154 -65,-52 -135,-52 -70,0 -135,52 -65,52 -65,154 0,67 49,139.5 49,72.5 152,154.5 z m -1,100 Q 339,-304 269.5,-402 200,-500 200,-594 q 0,-71 25.5,-124.5 25.5,-53.5 65.5,-89.5 40,-36 90,-54 50,-18 99,-18 49,0 99,18 50,18 90,54 40,36 65.5,89.5 25.5,53.5 25.5,124.5 0,94 -69.5,192 -69.5,98 -210.5,202 z m 0,-320 q 33,0 56.5,-23.5 Q 560,-567 560,-600 560,-633 536.5,-656.5 513,-680 480,-680 q -33,0 -56.5,23.5 -23.5,23.5 -23.5,56.5 0,33 23.5,56.5 23.5,23.5 56.5,23.5 z m 0,-80 z"
         id="path7293"
         style="fill:#000000;fill-opacity:1" /></g></g></svg>
